<?xml version="1.0" standalone="no"?>
<!DOCTYPE svg PUBLIC "-//W3C//DTD SVG 20010904//EN"
 "http://www.w3.org/TR/2001/REC-SVG-20010904/DTD/svg10.dtd">
<svg version="1.0" xmlns="http://www.w3.org/2000/svg"
 width="512.000000pt" height="512.000000pt" viewBox="0 0 512.000000 512.000000"
 preserveAspectRatio="xMidYMid meet">
<metadata>
Created by potrace 1.14, written by Peter Selinger 2001-2017
</metadata>
<g transform="translate(0.000000,512.000000) scale(0.100000,-0.100000)"
fill="#000000" stroke="none">
<path d="M2207 4704 c-1 -1 -29 -5 -62 -9 -33 -3 -69 -8 -80 -11 -11 -2 -31
-6 -45 -8 -73 -13 -211 -51 -297 -82 -320 -116 -648 -328 -985 -637 -98 -90
-115 -119 -95 -160 13 -28 -87 -129 -120 -121 -13 4 -34 3 -47 0 -39 -10 -314
-348 -435 -536 -34 -52 -41 -71 -37 -95 13 -67 73 -80 146 -31 267 179 569
288 832 299 181 8 290 -33 319 -121 27 -81 -53 -153 -173 -157 -35 -1 -109 9
-178 25 -191 43 -350 38 -475 -17 -65 -28 -159 -99 -199 -150 -48 -61 -103
-177 -111 -233 -4 -25 -9 -48 -11 -52 -3 -4 -5 -44 -5 -90 0 -84 17 -170 48
-243 21 -49 83 -143 111 -169 l21 -18 -24 -55 c-58 -129 -69 -188 -69 -343 0
-129 3 -155 28 -235 57 -188 160 -364 299 -514 38 -41 42 -43 86 -38 l46 5 76
-75 c228 -225 571 -381 909 -412 47 -5 829 -8 1738 -7 l1654 1 24 28 24 28 0
332 c-1 183 -3 342 -6 353 -7 29 -54 50 -139 63 -126 19 -139 22 -201 36 -34
8 -73 16 -86 19 -13 2 -85 20 -159 40 -492 131 -1018 357 -1434 616 -91 57
-293 195 -305 210 -3 3 -25 21 -50 40 -65 50 -115 95 -200 181 -298 299 -410
571 -345 835 25 98 59 159 126 226 80 81 213 140 344 155 30 3 42 0 52 -14 87
-119 201 -168 326 -139 73 18 113 41 174 102 80 79 107 146 108 259 0 83 -3
95 -33 151 -41 75 -102 136 -189 189 -63 39 -66 43 -88 107 -34 101 -92 194
-165 268 -105 104 -260 176 -421 195 -52 6 -217 13 -222 9z"/>
</g>
</svg>
